<svg width="378" height="46" viewBox="0 0 378 46" fill="none" xmlns="http://www.w3.org/2000/svg">
<path d="M0.5 7C0.5 3.96243 2.96243 1.5 6 1.5H54C57.0376 1.5 59.5 3.96243 59.5 7V40C59.5 43.0376 57.0376 45.5 54 45.5H6C2.96244 45.5 0.5 43.0376 0.5 40V7Z" fill="#FAFAFA" stroke="#DDDDDD"/>
<path d="M68 7C68 3.68629 70.6863 1 74 1H177C180.314 1 183 3.68629 183 7V40C183 43.3137 180.314 46 177 46H74C70.6863 46 68 43.3137 68 40V7Z" fill="#35B8BE"/>
<path d="M31.5767 17.3636V29H30.1676V18.8409H30.0994L27.2585 20.7273V19.2955L30.1676 17.3636H31.5767Z" fill="black"/>
<path d="M80.3207 29H78.8435L83.1162 17.3636H84.5707L88.8435 29H87.3662L83.8889 19.2045H83.798L80.3207 29ZM80.8662 24.4545H86.8207V25.7045H80.8662V24.4545ZM94.1296 29.1818C93.4023 29.1818 92.7603 28.9981 92.2035 28.6307C91.6466 28.2595 91.211 27.7367 90.8966 27.0625C90.5823 26.3845 90.4251 25.5833 90.4251 24.6591C90.4251 23.7424 90.5823 22.947 90.8966 22.2727C91.211 21.5985 91.6485 21.0777 92.2091 20.7102C92.7698 20.3428 93.4175 20.1591 94.1523 20.1591C94.7205 20.1591 95.1694 20.2538 95.4989 20.4432C95.8323 20.6288 96.086 20.8409 96.2603 21.0795C96.4383 21.3144 96.5766 21.5076 96.6751 21.6591H96.7887V17.3636H98.1296V29H96.8341V27.6591H96.6751C96.5766 27.8182 96.4364 28.0189 96.2546 28.2614C96.0728 28.5 95.8133 28.714 95.4762 28.9034C95.1391 29.089 94.6902 29.1818 94.1296 29.1818ZM94.3114 27.9773C94.8493 27.9773 95.3038 27.8371 95.6751 27.5568C96.0463 27.2727 96.3285 26.8807 96.5216 26.3807C96.7148 25.8769 96.8114 25.2955 96.8114 24.6364C96.8114 23.9848 96.7167 23.4148 96.5273 22.9261C96.3379 22.4337 96.0576 22.0511 95.6864 21.7784C95.3152 21.5019 94.8569 21.3636 94.3114 21.3636C93.7432 21.3636 93.2698 21.5095 92.891 21.8011C92.516 22.089 92.2338 22.4811 92.0444 22.9773C91.8588 23.4697 91.766 24.0227 91.766 24.6364C91.766 25.2576 91.8607 25.822 92.0501 26.3295C92.2432 26.8333 92.5273 27.2348 92.9023 27.5341C93.2811 27.8295 93.7508 27.9773 94.3114 27.9773ZM104.427 29.1818C103.7 29.1818 103.058 28.9981 102.501 28.6307C101.944 28.2595 101.509 27.7367 101.194 27.0625C100.88 26.3845 100.723 25.5833 100.723 24.6591C100.723 23.7424 100.88 22.947 101.194 22.2727C101.509 21.5985 101.946 21.0777 102.507 20.7102C103.067 20.3428 103.715 20.1591 104.45 20.1591C105.018 20.1591 105.467 20.2538 105.796 20.4432C106.13 20.6288 106.384 20.8409 106.558 21.0795C106.736 21.3144 106.874 21.5076 106.973 21.6591H107.086V17.3636H108.427V29H107.132V27.6591H106.973C106.874 27.8182 106.734 28.0189 106.552 28.2614C106.37 28.5 106.111 28.714 105.774 28.9034C105.437 29.089 104.988 29.1818 104.427 29.1818ZM104.609 27.9773C105.147 27.9773 105.601 27.8371 105.973 27.5568C106.344 27.2727 106.626 26.8807 106.819 26.3807C107.012 25.8769 107.109 25.2955 107.109 24.6364C107.109 23.9848 107.014 23.4148 106.825 22.9261C106.635 22.4337 106.355 22.0511 105.984 21.7784C105.613 21.5019 105.154 21.3636 104.609 21.3636C104.041 21.3636 103.567 21.5095 103.188 21.8011C102.813 22.089 102.531 22.4811 102.342 22.9773C102.156 23.4697 102.063 24.0227 102.063 24.6364C102.063 25.2576 102.158 25.822 102.348 26.3295C102.541 26.8333 102.825 27.2348 103.2 27.5341C103.579 27.8295 104.048 27.9773 104.609 27.9773ZM120.085 20.2727V21.4091H115.562V20.2727H120.085ZM116.88 18.1818H118.221V26.5C118.221 26.8788 118.276 27.1629 118.386 27.3523C118.499 27.5379 118.643 27.6629 118.818 27.7273C118.996 27.7879 119.183 27.8182 119.38 27.8182C119.528 27.8182 119.649 27.8106 119.744 27.7955C119.838 27.7765 119.914 27.7614 119.971 27.75L120.244 28.9545C120.153 28.9886 120.026 29.0227 119.863 29.0568C119.7 29.0947 119.494 29.1136 119.244 29.1136C118.865 29.1136 118.494 29.0322 118.13 28.8693C117.77 28.7064 117.471 28.4583 117.232 28.125C116.997 27.7917 116.88 27.3712 116.88 26.8636V18.1818ZM125.913 29.1818C125.125 29.1818 124.434 28.9943 123.839 28.6193C123.249 28.2443 122.786 27.7197 122.453 27.0455C122.124 26.3712 121.959 25.5833 121.959 24.6818C121.959 23.7727 122.124 22.9792 122.453 22.3011C122.786 21.6231 123.249 21.0966 123.839 20.7216C124.434 20.3466 125.125 20.1591 125.913 20.1591C126.701 20.1591 127.391 20.3466 127.982 20.7216C128.576 21.0966 129.038 21.6231 129.368 22.3011C129.701 22.9792 129.868 23.7727 129.868 24.6818C129.868 25.5833 129.701 26.3712 129.368 27.0455C129.038 27.7197 128.576 28.2443 127.982 28.6193C127.391 28.9943 126.701 29.1818 125.913 29.1818ZM125.913 27.9773C126.512 27.9773 127.004 27.8239 127.391 27.517C127.777 27.2102 128.063 26.8068 128.249 26.3068C128.434 25.8068 128.527 25.2652 128.527 24.6818C128.527 24.0985 128.434 23.5549 128.249 23.0511C128.063 22.5473 127.777 22.1402 127.391 21.8295C127.004 21.5189 126.512 21.3636 125.913 21.3636C125.315 21.3636 124.822 21.5189 124.436 21.8295C124.05 22.1402 123.764 22.5473 123.578 23.0511C123.393 23.5549 123.3 24.0985 123.3 24.6818C123.3 25.2652 123.393 25.8068 123.578 26.3068C123.764 26.8068 124.05 27.2102 124.436 27.517C124.822 27.8239 125.315 27.9773 125.913 27.9773ZM140.68 29.1818C139.862 29.1818 139.158 28.9886 138.567 28.6023C137.976 28.2159 137.521 27.6837 137.203 27.0057C136.885 26.3277 136.726 25.553 136.726 24.6818C136.726 23.7955 136.889 23.0133 137.214 22.3352C137.544 21.6534 138.002 21.1212 138.589 20.7386C139.18 20.3523 139.87 20.1591 140.658 20.1591C141.271 20.1591 141.824 20.2727 142.317 20.5C142.809 20.7273 143.212 21.0455 143.527 21.4545C143.841 21.8636 144.036 22.3409 144.112 22.8864H142.771C142.669 22.4886 142.442 22.1364 142.089 21.8295C141.741 21.5189 141.271 21.3636 140.68 21.3636C140.158 21.3636 139.699 21.5 139.305 21.7727C138.915 22.0417 138.61 22.4223 138.39 22.9148C138.175 23.4034 138.067 23.9773 138.067 24.6364C138.067 25.3106 138.173 25.8977 138.385 26.3977C138.601 26.8977 138.904 27.286 139.294 27.5625C139.688 27.839 140.15 27.9773 140.68 27.9773C141.029 27.9773 141.345 27.9167 141.629 27.7955C141.913 27.6742 142.154 27.5 142.351 27.2727C142.548 27.0455 142.688 26.7727 142.771 26.4545H144.112C144.036 26.9697 143.849 27.4337 143.55 27.8466C143.254 28.2557 142.862 28.5814 142.373 28.8239C141.889 29.0625 141.324 29.1818 140.68 29.1818ZM149 29.2045C148.447 29.2045 147.946 29.1004 147.495 28.892C147.044 28.6799 146.686 28.375 146.421 27.9773C146.156 27.5758 146.023 27.0909 146.023 26.5227C146.023 26.0227 146.122 25.6174 146.319 25.3068C146.516 24.9924 146.779 24.7462 147.108 24.5682C147.438 24.3902 147.802 24.2576 148.199 24.1705C148.601 24.0795 149.004 24.0076 149.41 23.9545C149.94 23.8864 150.37 23.8352 150.699 23.8011C151.033 23.7633 151.275 23.7008 151.427 23.6136C151.582 23.5265 151.66 23.375 151.66 23.1591V23.1136C151.66 22.553 151.506 22.1174 151.199 21.8068C150.896 21.4962 150.436 21.3409 149.819 21.3409C149.178 21.3409 148.677 21.4811 148.313 21.7614C147.949 22.0417 147.694 22.3409 147.546 22.6591L146.273 22.2045C146.5 21.6742 146.803 21.2614 147.182 20.9659C147.565 20.6667 147.982 20.4583 148.432 20.3409C148.887 20.2197 149.334 20.1591 149.773 20.1591C150.053 20.1591 150.375 20.1932 150.739 20.2614C151.107 20.3258 151.461 20.4602 151.802 20.6648C152.146 20.8693 152.432 21.178 152.66 21.5909C152.887 22.0038 153 22.5568 153 23.25V29H151.66V27.8182H151.591C151.5 28.0076 151.349 28.2102 151.137 28.4261C150.925 28.642 150.643 28.8258 150.29 28.9773C149.938 29.1288 149.508 29.2045 149 29.2045ZM149.205 28C149.735 28 150.182 27.8958 150.546 27.6875C150.913 27.4792 151.19 27.2102 151.375 26.8807C151.565 26.5511 151.66 26.2045 151.66 25.8409V24.6136C151.603 24.6818 151.478 24.7443 151.285 24.8011C151.095 24.8542 150.875 24.9015 150.625 24.9432C150.379 24.9811 150.139 25.0152 149.904 25.0455C149.673 25.072 149.485 25.0947 149.341 25.1136C148.993 25.1591 148.667 25.233 148.364 25.3352C148.065 25.4337 147.822 25.5833 147.637 25.7841C147.455 25.9811 147.364 26.25 147.364 26.5909C147.364 27.0568 147.536 27.4091 147.881 27.6477C148.23 27.8826 148.671 28 149.205 28ZM155.808 29V20.2727H157.103V21.5909H157.194C157.353 21.1591 157.641 20.8087 158.058 20.5398C158.475 20.2708 158.944 20.1364 159.467 20.1364C159.565 20.1364 159.689 20.1383 159.836 20.142C159.984 20.1458 160.096 20.1515 160.172 20.1591V21.5227C160.126 21.5114 160.022 21.4943 159.859 21.4716C159.7 21.4451 159.531 21.4318 159.353 21.4318C158.929 21.4318 158.55 21.5208 158.217 21.6989C157.887 21.8731 157.626 22.1155 157.433 22.4261C157.244 22.733 157.149 23.0833 157.149 23.4773V29H155.808ZM165.151 29.1818C164.424 29.1818 163.782 28.9981 163.225 28.6307C162.668 28.2595 162.232 27.7367 161.918 27.0625C161.604 26.3845 161.446 25.5833 161.446 24.6591C161.446 23.7424 161.604 22.947 161.918 22.2727C162.232 21.5985 162.67 21.0777 163.23 20.7102C163.791 20.3428 164.439 20.1591 165.174 20.1591C165.742 20.1591 166.191 20.2538 166.52 20.4432C166.854 20.6288 167.107 20.8409 167.282 21.0795C167.46 21.3144 167.598 21.5076 167.696 21.6591H167.81V17.3636H169.151V29H167.855V27.6591H167.696C167.598 27.8182 167.458 28.0189 167.276 28.2614C167.094 28.5 166.835 28.714 166.497 28.9034C166.16 29.089 165.711 29.1818 165.151 29.1818ZM165.333 27.9773C165.871 27.9773 166.325 27.8371 166.696 27.5568C167.068 27.2727 167.35 26.8807 167.543 26.3807C167.736 25.8769 167.833 25.2955 167.833 24.6364C167.833 23.9848 167.738 23.4148 167.549 22.9261C167.359 22.4337 167.079 22.0511 166.708 21.7784C166.336 21.5019 165.878 21.3636 165.333 21.3636C164.764 21.3636 164.291 21.5095 163.912 21.8011C163.537 22.089 163.255 22.4811 163.066 22.9773C162.88 23.4697 162.787 24.0227 162.787 24.6364C162.787 25.2576 162.882 25.822 163.071 26.3295C163.264 26.8333 163.549 27.2348 163.924 27.5341C164.302 27.8295 164.772 27.9773 165.333 27.9773Z" fill="black"/>
</svg>
